<?xml version="1.0" encoding="utf-8"?>
<!-- Generator: Adobe Illustrator 22.1.0, SVG Export Plug-In . SVG Version: 6.00 Build 0)  -->
<svg version="1.1" id="レイヤー_1" xmlns="http://www.w3.org/2000/svg" xmlns:xlink="http://www.w3.org/1999/xlink" x="0px"
	 y="0px" viewBox="0 0 474.6 108" style="enable-background:new 0 0 474.6 108;" xml:space="preserve">
<style type="text/css">
	.st0{fill:#FFFFFF;}
</style>
<g>
	<g>
		<g>
			<path class="st0" d="M400.3,37.2c0,0.1,0.1,0.1,0.2,0.2v-3.9c0-0.7,0.4-1.5,0.8-2c0.6-0.6,1.3-0.9,2.1-0.9h3.4
				c0.7,0,1.5,0.4,2,0.9c0.6,0.5,0.9,1.3,0.9,2v48c0,0.7-0.4,1.5-0.9,2c-0.5,0.6-1.3,0.9-2,0.9h-3.4c-0.8,0-1.5-0.4-2.1-0.9
				c-0.5-0.5-0.8-1.3-0.8-2v-3.1c-1.4,1.3-2.9,2.5-4.6,3.4c-4,2.3-8.6,3.4-13.5,3.4h-0.1c-4,0-7.7-0.7-11.1-2.2
				c-6.3-2.8-11.5-8.3-14.2-15.3c-1.2-3.1-1.8-6.3-1.8-9.9c0-4.1,0.8-8,2.3-11.5c1.6-3.4,4-6.6,7-9.2c2.5-2.2,5.3-3.9,8.3-5
				c2.9-1.1,6.1-1.6,9.5-1.6s6.6,0.6,9.5,1.6C395,33.5,397.8,35.1,400.3,37.2z M399.3,64.8c0.6-1.8,1.1-3.5,1.2-5.5v-0.9
				c0-2.8-0.5-5.4-1.5-7.6c-0.9-2.2-2.3-4.2-4.2-6c-1.8-1.6-3.6-2.8-5.6-3.6s-4.1-1.3-6.5-1.4c-2.7,0-5,0.5-7.2,1.5
				c-2.2,0.9-4.2,2.3-6.1,4.3c-1.6,1.8-2.9,3.6-3.8,5.8c-0.8,2-1.2,4.2-1.2,6.8c0,2.8,0.5,5.3,1.5,7.5c0.9,2.2,2.5,4.2,4.7,6.1
				c1.8,1.5,3.5,2.7,5.5,3.4c1.9,0.8,4,1.2,6.2,1.2c2.7,0,5-0.5,7.3-1.5c2.2-0.9,4.2-2.3,6.1-4.5C397.4,68.7,398.5,66.8,399.3,64.8z
				"/>
		</g>
		<g>
			<path class="st0" d="M305.9,79.9c0,4.3-3.7,4.9-5.3,4.9c-1.4,0-5.4-0.4-5.4-4.9V14.5c0-10.3,4-13.6,14.3-13.6H328
				c26.4,0,28.4,18.4,28.4,24.3c0,7-2.9,24.4-28.4,24.4h-22v30.3H305.9z M305.9,40.8h21c13.9,0,18.8-8.4,18.8-15.6
				c0-7.4-5.2-15.5-18.8-15.5h-15.1c-5.3,0-5.8,3.2-5.8,5.5v25.6H305.9z"/>
		</g>
		<g>
			<path class="st0" d="M464.8,32.5c0.2-0.6,1.3-3.1,4.5-3.1c2.7,0,5.3,2.1,5.3,4.3c0,0.7-0.2,1.5-0.4,2.2l-26.2,62
				c-3.2,7.6-9.8,10.1-19,10.1c-1.8,0-6.2,0-6.2-4.2c0-3.8,3.4-4,8-4.3c3.8-0.3,7-1.1,9-6.2l1.4-3.6L417.3,36
				c-0.2-0.4-0.4-1.1-0.4-2c0-2.7,2.7-4.6,5.4-4.6c2.3,0,3.7,1.3,4.4,3l19.6,45.1L464.8,32.5z"/>
		</g>
	</g>
	<g>
		<path class="st0" d="M66.2,84.6c-10.6,0-16.7-3.8-20.1-7.6c-6.7,4.4-14.1,7.5-23.9,7.3C11,84.1,5.6,78.6,3.1,74
			c-5.9-10.6-2.8-26.8,3.5-37.3C19,15.8,39.5,4.1,54.6,0.1c2.4-0.6,4.9,0.8,5.6,3.2c0.6,2.4-0.8,4.9-3.2,5.6
			c-13.3,3.5-31.5,13.9-42.5,32.4c-4.7,8-7.4,21-3.4,28.2c2.1,3.7,5.8,5.5,11.3,5.6c7.7,0.1,13.6-2.3,19.3-6.2
			c-1.9-6.2-1.4-13.7,1.6-21.9c3.2-9,9.5-16.1,16.4-18.4c4.3-1.5,8.5-1.1,12,1.1c3.4,2.1,5.4,5.3,5.6,9.2
			c0.8,11.2-13,23.4-15.7,25.8c-1,0.9-2.1,1.8-3.1,2.6c-1.7,1.4-3.3,2.8-5,4.2c2.9,2.7,7.4,4.1,13.4,3.9
			c12.2-0.2,21.1-9.7,31.4-20.6c12.4-13.2,26.5-28.1,49.3-27.2c7.6,0.3,13.4,2.1,18.1,5.7c2,1.5,2.4,4.4,0.9,6.4s-4.4,2.4-6.4,0.9
			s-5.5-3.5-12.9-3.8c-18.6-0.7-30.1,11.5-42.3,24.4C94.2,72.6,83.1,84.4,67.1,84.7C66.8,84.6,66.5,84.6,66.2,84.6z M64.6,36.9
			c-0.6,0-1.3,0.1-2,0.4c-3.2,1.1-8,5.2-10.8,12.9c-1.7,4.6-2.3,8.9-2.1,12.6c0.9-0.8,1.8-1.6,2.8-2.4c1-0.9,2.1-1.8,3.1-2.7
			c7.3-6.2,12.8-14.1,12.5-18.2c-0.1-0.8-0.3-1.4-1.4-2.1C66.1,37.1,65.4,36.9,64.6,36.9z"/>
		<path class="st0" d="M165.9,85.4c-3.5,0-6.9-0.8-10-2.3c-2.2-1-4-2.3-5.5-3.9c-5.6,3.6-9.6,5.3-20.3,5.3c-14.4,0-23-8.4-25.9-15.7
			c-0.9-2.3,0.2-5,2.5-5.9s5,0.2,5.9,2.5c0.7,1.7,4.7,10,17.4,10c8.5,0,10.8-0.8,15.9-4.1c-0.3-1.1-0.4-2.3-0.5-3.5
			c-0.4-9.3,5.8-18.7,12.1-22.4c4-2.4,8.3-2.6,11.7-0.5c3,1.8,4.6,4.6,4.7,7.9c0.1,8.4-10.6,17.5-15.7,21.3c0.5,0.3,1.1,0.7,1.7,1
			c1.8,0.9,7.4,3.6,19.1-2.6c2.2-1.2,5-0.3,6.2,1.9c1.2,2.2,0.3,5-1.9,6.1C176.9,83.8,171.2,85.4,165.9,85.4z M164.1,52.6
			c-0.5,0-1.2,0.2-1.9,0.7c-3.3,2-6.8,7.1-7.5,12.1c5.9-4.8,10.5-10.5,10.1-12.4l0,0c0,0-0.1-0.1-0.3-0.2
			C164.4,52.6,164.3,52.6,164.1,52.6z"/>
		<path class="st0" d="M214.5,85.3c-12.9,0-24.4-6.8-28.3-18c-2.6-7.3-1.6-15.3,2.8-22.6c4.2-7,11.1-12.4,19.4-15.3
			c17.4-6.1,35.8,1,41,15.8l0,0c5.2,14.8-4.8,31.8-22.2,37.9C223,84.6,218.7,85.3,214.5,85.3z M221.3,36.4c-3.2,0-6.5,0.5-9.8,1.7
			c-6.3,2.2-11.5,6.3-14.6,11.4c-3,4.9-3.7,10.2-2,14.9c3.5,10,16.7,14.6,29.4,10.2s20.2-16.2,16.6-26.3
			C238.3,40.8,230.4,36.4,221.3,36.4z"/>
		<path class="st0" d="M269.6,42.6c0,2.7-2.3,4.9-5,4.9s-4.9-2.3-4.9-5s2.3-4.9,5-4.9C267.5,37.6,269.7,39.9,269.6,42.6z"/>
		<path class="st0" d="M269.6,69.6c0,2.7-2.3,4.9-5,4.9s-4.9-2.3-4.9-5s2.3-4.9,5-4.9C267.5,64.7,269.7,66.9,269.6,69.6z"/>
	</g>
</g>
</svg>
