<?xml version="1.0" encoding="utf-8"?>
<!-- Generator: Adobe Illustrator 22.1.0, SVG Export Plug-In . SVG Version: 6.00 Build 0)  -->
<svg version="1.1" xmlns="http://www.w3.org/2000/svg" xmlns:xlink="http://www.w3.org/1999/xlink" x="0px" y="0px"
	 viewBox="0 0 148.2 46.9" style="enable-background:new 0 0 148.2 46.9;" xml:space="preserve">
<style type="text/css">
  g { fill: #fff; }
</style>
<g id="レイヤー_1">
	<g class="st0">
		<path class="st1" d="M-1035.4-567.9c-1.5,2.4-2.6,5.5-2.1,8.3c0.9,5.4,7.1,6.5,11.7,6.4c7-0.2,13.4-2.3,18.5-7
			c2.8-2.6,8.1-7.5,7.1-11.9c-1.2-5-6.4-2.2-8.7,0.3c-3,3.3-6.5,9.4-3.6,13.7c2.2,3.3,7.1,3.9,10.7,3.9c7-0.1,13.3-1.9,18.9-6
			c1.9-1.4,0.1-4.7-1.9-3.2c-5.6,4-12.3,6.1-19.2,5.4c-4.4-0.5-7.1-2.9-4.8-7.6c0.7-1.3,1.9-4,3.2-4.3c3.1-0.9,0.2,2.2-0.5,3.1
			c-4.8,6.3-11.8,9.7-19.7,9.9c-4.1,0.1-9-0.7-7.8-5.8c0.3-1.1,0.8-2.2,1.4-3.2C-1030.9-568-1034.1-569.9-1035.4-567.9"/>
		<path class="st1" d="M-1100.5-617.8c9.3-1,12.6,8.5,10.4,16c-2.1,7.1-7.3,12.9-10.7,19.3c-3.3,6.1-6.9,15.9-3.3,22.7
			c4.2,7.9,15.7,7.2,22.8,4.7c8.8-3.1,17.1-8.6,23.7-15.2c4.4-4.4,11.3-13.3,8.4-20.2c-3.2-7.6-12.6,0.3-15.1,4.2
			c-5.3,8.6-10.8,30.5,3.9,32.8c10.9,1.7,18.1-9.1,24.7-16c6.7-7,18.4-14.3,27.3-6.2c1.8,1.6,4.4-1,2.7-2.7
			c-10.5-9.6-24.4-2.4-32.6,6.2c-5.5,5.7-13,17.5-22.3,14.7c-7.6-2.2-5.5-12.8-3.9-18.4c0.5-1.6,1-3.2,1.7-4.8
			c1-2.5,2.2-4.9,4.1-6.8c1.7-1.6,5.8-4.3,6.2-0.3c0.9,7.6-7.4,14.9-12.6,19c-6.4,5.1-14.7,10.5-23.1,11.3c-4.4,0.4-10.6,0-12.8-4.6
			c-1.5-3.1-0.5-7.9,0.3-11.1c3.2-11.8,14.4-20.4,15.2-33c0.5-8.4-6.1-16.4-15-15.5C-1102.9-621.4-1102.9-617.6-1100.5-617.8"/>
	</g>
</g>
<g id="レイヤー_2">
	<g>
		<path d="M36.4,46.5c-5.8,0-9.2-2.1-11.1-4.1c-3.7,2.4-7.8,4.1-13.1,4c-6.1-0.1-9.1-3.1-10.5-5.6c-3.3-5.8-1.5-14.7,1.9-20.5
			C10.4,8.7,21.7,2.3,30,0.1c1.3-0.4,2.7,0.4,3.1,1.8c0.4,1.3-0.4,2.7-1.8,3.1C24,6.9,14,12.5,7.9,22.7c-2.6,4.4-4,11.6-1.8,15.5
			c1.1,2,3.2,3,6.2,3.1c4.2,0.1,7.5-1.3,10.6-3.4c-1-3.4-0.8-7.5,0.9-12.1c1.8-4.9,5.2-8.8,9-10.1c2.3-0.8,4.7-0.6,6.6,0.6
			c1.9,1.2,2.9,2.9,3.1,5c0.4,6.2-7.1,12.9-8.6,14.2c-0.6,0.5-1.1,1-1.7,1.4c-0.9,0.8-1.8,1.5-2.7,2.3c1.6,1.5,4.1,2.3,7.4,2.2
			c6.7-0.1,11.6-5.3,17.3-11.3c6.8-7.2,14.6-15.4,27.1-15c4.2,0.2,7.3,1.1,9.9,3.1c1.1,0.8,1.3,2.4,0.5,3.5
			c-0.8,1.1-2.4,1.3-3.5,0.5c-1.1-0.8-3-1.9-7.1-2.1c-10.2-0.3-16.6,6.3-23.2,13.4c-5.9,6.3-12,12.7-20.8,12.9
			C36.7,46.5,36.6,46.5,36.4,46.5z M35.5,20.3c-0.3,0-0.7,0.1-1.1,0.2c-1.8,0.6-4.4,2.8-5.9,7.1c-0.9,2.5-1.3,4.9-1.1,6.9
			c0.5-0.4,1-0.9,1.5-1.3c0.6-0.5,1.1-1,1.7-1.5c4-3.4,7-7.8,6.9-10c0-0.4-0.2-0.8-0.8-1.2C36.4,20.4,36,20.3,35.5,20.3z"/>
		<path d="M91.2,46.9c-1.9,0-3.8-0.4-5.5-1.2c-1.2-0.6-2.2-1.3-3-2.1c-3.1,2-5.3,2.9-11.2,2.9c-7.9,0-12.6-4.6-14.2-8.6
			c-0.5-1.3,0.1-2.7,1.4-3.3c1.3-0.5,2.7,0.1,3.3,1.4c0.4,0.9,2.6,5.5,9.6,5.5c4.7,0,5.9-0.5,8.7-2.3c-0.1-0.6-0.2-1.3-0.3-1.9
			c-0.2-5.1,3.2-10.3,6.6-12.3c2.2-1.3,4.6-1.4,6.4-0.3c1.6,1,2.5,2.5,2.6,4.3c0.1,4.6-5.9,9.6-8.6,11.7c0.3,0.2,0.6,0.4,0.9,0.5
			c1,0.5,4.1,2,10.5-1.4c1.2-0.6,2.7-0.2,3.4,1c0.6,1.2,0.2,2.7-1,3.4C97.2,46,94.1,46.9,91.2,46.9z M90.2,28.9
			c-0.3,0-0.6,0.1-1,0.4c-1.8,1.1-3.8,3.9-4.1,6.6c3.2-2.6,5.8-5.8,5.6-6.8c0,0,0,0,0,0c0,0-0.1,0-0.2-0.1
			C90.4,28.9,90.3,28.9,90.2,28.9z"/>
		<path d="M117.9,46.8c-7.1,0-13.4-3.7-15.5-9.9c-1.4-4-0.9-8.4,1.6-12.4c2.3-3.8,6.1-6.8,10.7-8.4c9.6-3.3,19.7,0.5,22.5,8.7v0
			c2.8,8.1-2.6,17.5-12.2,20.8C122.5,46.5,120.2,46.8,117.9,46.8z M121.6,20c-1.7,0-3.6,0.3-5.4,0.9c-3.5,1.2-6.3,3.4-8,6.3
			c-1.6,2.7-2,5.6-1.1,8.2c1.9,5.5,9.2,8,16.1,5.6c7-2.4,11.1-8.9,9.1-14.4C130.9,22.4,126.6,20,121.6,20z"/>
		<path d="M148.2,23.4c0,1.5-1.3,2.7-2.8,2.7c-1.5,0-2.7-1.3-2.7-2.8c0-1.5,1.3-2.7,2.8-2.7C147,20.7,148.2,21.9,148.2,23.4z"/>
		<path d="M148.2,38.2c0,1.5-1.3,2.7-2.8,2.7c-1.5,0-2.7-1.3-2.7-2.8c0-1.5,1.3-2.7,2.8-2.7C147,35.5,148.2,36.7,148.2,38.2z"/>
	</g>
</g>
<g id="レイヤー_3">
</g>
</svg>
